Exact Audio Copy V0.99 prebeta 5 from 4. May 2009

Отчёт EAC об извлечении, выполненном 23. июля 2012, 19:00

AGHAST MANOR / Gaslights

Дисковод: ASUS    DRW-24B3ST   Adapter: 5  ID: 0

Режим чтения                 : Достоверность
Использование точного потока : Да
Отключение кэша аудио        : Да
Использование указателей C2  : Нет

Коррекция смещения при чтении                     : 6
Способность читать области Lead-in и Lead-out     : Нет
Заполнение пропущенных сэмплов тишиной            : Да
Удаление блоков с тишиной в начале и конце        : Нет
При вычислениях CRC использовались нулевые сэмплы : Да
Интерфейс                                         : Установленный внешний ASPI-интерфейс

Выходной формат          : Пользовательский кодировщик
Выбранный битрейт        : 768 kBit/s
Качество                 : Высокий
Добавление ID3-тэга      : Нет
Утилита сжатия           : C:\Program Files\Exact Audio Copy\FLAC\FLAC.EXE
Дополнительные параметры : -6 -V -T "ARTIST=%a" -T "TITLE=%t" -T "ALBUM=%g" -T "DATE=%y" -T "TRACKNUMBER=%n" -T "GENRE=%m" -T "COMMENT=%e" %s -o %d


TOC извлечённого CD

     Трек |   Старт  | Длительность | Начальный сектор | Конечный сектор 
    ---------------------------------------------------------------------
       1  |  0:00.00 |    2:26.07   |           0      |      10956      
       2  |  2:26.07 |    2:51.35   |       10957      |      23816      
       3  |  5:17.42 |    3:36.29   |       23817      |      40045      
       4  |  8:53.71 |    3:18.73   |       40046      |      54968      
       5  | 12:12.69 |    2:37.27   |       54969      |      66770      
       6  | 14:50.21 |    3:01.09   |       66771      |      80354      
       7  | 17:51.30 |    3:25.26   |       80355      |      95755      
       8  | 21:16.56 |    3:02.34   |       95756      |     109439      
       9  | 24:19.15 |    2:28.10   |      109440      |     120549      
      10  | 26:47.25 |    3:03.59   |      120550      |     134333      
      11  | 29:51.09 |    5:14.20   |      134334      |     157903      


Характеристики диапазона извлечения и сообщения об ошибках

Выбранный диапазон

     Имя файла G:\KIILLSS\AGHAST MANOR - Gaslights.wav

     Пиковый уровень 100.0 %
     Качество диапазона 100.0 %
     CRC теста 341D7876
     CRC копии 341D7876
     Копирование... OK

Ошибок не произошло

 
AccurateRip: сводка
 
Трек  1  нет в базе данных
Трек  2  нет в базе данных
Трек  3  нет в базе данных
Трек  4  нет в базе данных
Трек  5  нет в базе данных
Трек  6  нет в базе данных
Трек  7  нет в базе данных
Трек  8  нет в базе данных
Трек  9  нет в базе данных
Трек 10  нет в базе данных
Трек 11  нет в базе данных
 
Ни одного трека нет в базе AccurateRip

Конец отчёта
